<?xml version="1.0" standalone="no"?>
<!DOCTYPE svg PUBLIC "-//W3C//DTD SVG 1.1//EN" "http://www.w3.org/Graphics/SVG/1.1/DTD/svg11.dtd" >
<svg xmlns="http://www.w3.org/2000/svg" xmlns:xlink="http://www.w3.org/1999/xlink" version="1.1">
<metadata></metadata>
<defs>
<font id="beynoregular" horiz-adv-x="1705" >
<font-face units-per-em="2048" ascent="1536" descent="-512" />
<missing-glyph horiz-adv-x="737" />
<glyph horiz-adv-x="0" />
<glyph unicode="&#xd;" horiz-adv-x="737" />
<glyph horiz-adv-x="0" />
<glyph horiz-adv-x="0" />
<glyph unicode=" "  horiz-adv-x="737" />
<glyph unicode="&#x09;" horiz-adv-x="737" />
<glyph unicode="&#xa0;" horiz-adv-x="737" />
<glyph unicode="!" horiz-adv-x="378" d="M0 33v104q0 14 8 24.5t25 10.5h119q33 0 32 -33l-2 -104q0 -14 -8 -24.5t-22 -10.5h-121q-31 0 -31 33zM6 317v1119q0 31 31 30h106q12 0 23.5 -8t11.5 -22v-1119q0 -16 -10 -23t-25 -7h-106q-31 0 -31 30z" />
<glyph unicode="&#x22;" horiz-adv-x="622" d="M0 973v463q0 33 33 32l104 -2q14 0 24.5 -8t10.5 -22v-465q0 -31 -33 -31h-104q-14 0 -24.5 8t-10.5 25zM256 973v463q0 33 31 32l104 -2q14 0 25.5 -8t11.5 -22v-465q0 -31 -33 -31h-104q-35 0 -35 33z" />
<glyph unicode="+" horiz-adv-x="884" d="M0 713v104q0 14 8 25.5t25 11.5h227v227q0 31 31 31h106q12 0 23.5 -8t11.5 -23v-227h223q10 0 22.5 -8t12.5 -25v-104q0 -14 -8 -24.5t-23 -10.5h-227v-229q0 -31 -33 -31h-104q-14 0 -24.5 8t-10.5 25v227h-229q-31 0 -31 31z" />
<glyph unicode="," horiz-adv-x="378" d="M0 135q0 14 8 25.5t25 11.5h119q33 0 32 -33l-2 -309q0 -14 -8 -24.5t-22 -10.5h-121q-31 0 -31 31v309z" />
<glyph unicode="." horiz-adv-x="378" d="M0 31v104q0 14 8 25.5t25 11.5h119q33 0 32 -33l-2 -104q0 -14 -8 -24.5t-22 -10.5h-121q-31 0 -31 31z" />
<glyph unicode="/" d="M0 68q0 8 2 12l510 1364q6 20 29 20q2 0 5 -1t13 -4t31.5 -11.5t60.5 -22.5q10 -4 17.5 -13t7.5 -19q0 -4 -1 -6.5t-1 -4.5l-510 -1362q-8 -20 -27 -20q-6 0 -18 4l-96 35q-23 8 -23 29z" />
<glyph unicode="0" />
<glyph unicode="1" />
<glyph unicode="2" />
<glyph unicode="3" />
<glyph unicode="4" />
<glyph unicode="5" />
<glyph unicode="6" />
<glyph unicode="7" />
<glyph unicode="8" />
<glyph unicode="9" />
<glyph unicode="?" horiz-adv-x="901" d="M29 31q0 -31 30 -31h121q14 0 22.5 10t8.5 25l2 104q0 33 -33 33h-119q-16 0 -24 -11t-8 -26v-104zM33 322v366l379 606h-342q-14 0 -22.5 10.5t-8.5 24.5v105q0 33 31 32h495h129q12 0 13 -8q0 -10 -9 -22l-493 -758v-356q0 -37 -31 -37h-106q-35 0 -35 37z" />
<glyph unicode="A" horiz-adv-x="1507" d="M0 31q0 12 4 18l610 1393q12 27 43 26h7q20 0 26.5 -5t14.5 -21q168 -389 301 -697q55 -131 109 -255.5t97 -223.5q51 -115 95 -217q4 -10 5 -15t1 -9q0 -25 -35 -25h-1239q-39 0 -39 31zM244 174h829l-414 975z" />
<glyph unicode="B" horiz-adv-x="1294" d="M0 31v776q0 33 33 33h588q47 0 88 18.5t71.5 49t49 71.5t18.5 88q0 98 -62.5 164.5t-162.5 66.5h-486q-33 0 -33 35v103q0 31 33 30h496q76 0 146.5 -29.5t123.5 -80.5t86 -122t33 -155q0 -86 -35 -163.5t-100 -137.5q98 -59 155.5 -155.5t57.5 -206.5q0 -84 -33 -160 t-89 -133t-131 -90t-157 -33h-655q-35 0 -35 31zM168 168h520q49 0 92 21.5t75 56.5t50.5 80t20.5 92q0 49 -17.5 95t-49.5 82t-76 56.5t-95 20.5h-520v-504z" />
<glyph unicode="C" horiz-adv-x="1417" d="M10 885q33 188 153 338.5t298 226.5q92 38 188 52q52 7 104 8q45 0 89 -6q96 -12 187 -46.5t171 -91.5q16 -12 20.5 -21.5t-3.5 -23.5l-52 -84q-16 -24 -33 -24q-12 0 -24 12q-72 55 -156 80.5t-174 31.5q-90 0 -175 -24.5t-158.5 -70.5t-132 -112.5t-95.5 -148.5 q-39 -86 -46 -180q-2 -24 -2 -48q-1 -69 15 -135q20 -90 68.5 -169.5t122.5 -141.5q74 -61 161 -94t182 -35h13q89 0 181 26q100 28 196 89q16 10 26.5 10t22.5 -20q16 -27 29 -47q10 -18 18 -33t10 -17q8 -14 0 -24t-20 -21q-130 -97 -288 -127q-75 -14 -149 -14 q-83 0 -167 18q-154 35 -282 127.5t-206 227.5q-12 20 -9 16t9.5 -15.5t9.5 -16.5t-10 16q-68 117 -91 248q-12 67 -12 134q0 65 11 130z" />
<glyph unicode="D" horiz-adv-x="1437" d="M0 29v1403q0 35 33 34h471q152 0 287 -56t235 -155.5t158.5 -233.5t58.5 -290q0 -158 -61.5 -292t-164 -231t-235.5 -152.5t-278 -55.5h-471q-33 0 -33 29zM168 168h330q123 0 228 46t182 124t121 183.5t44 226.5q0 123 -46 224t-124 174t-181.5 112.5t-217.5 39.5h-336 v-1130z" />
<glyph unicode="E" horiz-adv-x="1226" d="M0 33v1405q0 29 33 28h968q31 0 31 -30v-103q0 -37 -33 -37h-827v-245h657q14 0 22.5 -10.5t8.5 -24.5v-103q0 -14 -8 -24t-23 -10h-657v-254h657q31 0 31 -33v-105q0 -12 -8 -23t-23 -11h-657v-283h821q16 0 26.5 -9t10.5 -26v-100q0 -35 -35 -35h-962q-33 0 -33 33z " />
<glyph unicode="F" horiz-adv-x="1210" d="M0 29v1405q0 33 33 32h948q35 0 35 -34v-99q0 -16 -9.5 -26.5t-25.5 -10.5h-809v-477h573q31 0 31 -33v-102q0 -14 -8 -25.5t-23 -11.5h-573v-618q0 -29 -35 -29h-104q-33 0 -33 29z" />
<glyph unicode="G" horiz-adv-x="1433" d="M0 756q0 154 59.5 291t162 240.5t239.5 163.5t295 60q59 0 122.5 -10t125 -31.5t118 -53.5t101.5 -77q14 -14 14 -36q0 -16 -9 -34t-22.5 -31t-28 -21.5t-26.5 -8.5q-8 0 -23.5 8.5t-72.5 43.5q-66 39 -138.5 57t-146.5 18q-121 0 -229.5 -46t-191.5 -125t-132 -185.5 t-49 -224.5q0 -119 45 -225.5t124 -186.5t183.5 -127t222.5 -47q86 0 168 28.5t160 67.5v359q0 23 12.5 36t34.5 13h72q23 0 36 -13.5t13 -35.5v-428q0 -18 -8 -27.5t-25 -22.5q-102 -72 -215.5 -108.5t-238.5 -36.5q-102 0 -199.5 27.5t-183.5 79t-157 123t-120 161.5 q0 -2 9.5 -18.5t9.5 -14.5q-111 182 -111 398z" />
<glyph unicode="H" horiz-adv-x="1402" d="M0 31v1405q0 16 9 23t22 7h106q12 0 22.5 -8t10.5 -22v-387h868v387q1 14 9 22t24 8h103q14 0 24 -8t10 -22v-1405q0 -31 -34 -31h-103q-33 0 -33 31v422h-868v-422q0 -31 -35 -31h-104q-31 0 -31 31zM170 625h868v254h-868v-254z" />
<glyph unicode="I" horiz-adv-x="503" d="M0 31v1405q0 14 9 22t22 8h106q35 0 35 -32v-1403q0 -31 -35 -31h-106q-31 0 -31 31z" />
<glyph unicode="J" horiz-adv-x="827" d="M0 135q0 6 5 12.5t11 12.5l72 67q10 10 18 11q6 0 17 -7q23 -16 40 -28.5t33.5 -21.5t37 -14t49.5 -5q31 0 63.5 12t58 35.5t42 57.5t16.5 77v1112q0 25 29 31h108q16 0 24.5 -10.5t8.5 -22.5v-1110q0 -80 -30 -144.5t-79 -109.5t-112.5 -69.5t-128.5 -24.5 q-82 0 -155 29t-120 92q-6 10 -7 13t-1 5z" />
<glyph unicode="K" horiz-adv-x="1165" d="M0 49v1370q0 23 12.5 36t34.5 13h72q23 0 36 -14t13 -35v-581l418 444q10 10 22.5 21.5t28.5 11.5h139q43 0 43 -23q0 -8 -8 -16l-643 -682v-113l543 574q10 10 22 21t29 11h139q18 0 36.5 -10t0.5 -28l-467 -492l490 -518q10 -14 10 -19q0 -10 -14.5 -15t-32.5 -5h-140 q-16 0 -27.5 11.5l-21.5 21.5l-379 401l-188 -196v-189q0 -49 -49 -49h-72q-47 0 -47 49z" />
<glyph unicode="L" horiz-adv-x="1112" d="M0 31v1405q0 31 33 30h104q31 0 31 -30v-1266h719q16 0 23.5 -11.5t7.5 -23.5v-104q-4 -29 -31 -31h-856q-31 0 -31 31z" />
<glyph unicode="M" horiz-adv-x="2050" d="M0 27q0 12 4 18l582 1399q10 23 39 22h65q16 0 24.5 -3t16.5 -21l197 -475l196 475q8 16 16.5 20t24.5 4h66q16 0 24.5 -4t14.5 -20l581 -1397q4 -12 4 -18q0 -27 -32 -27h-105q-31 0 -43 26.5t-41 104.5l-436 1071l-436 -1071q-16 -39 -25.5 -63.5t-16.5 -40 t-17.5 -21.5t-24.5 -6h-105q-35 0 -34 27q0 6 4 18l297 711q-47 113 -92.5 224.5t-88.5 223.5l-436 -1073q-16 -39 -25.5 -63.5t-17.5 -40t-17 -21.5t-24 -6h-104q-35 0 -35 27z" />
<glyph unicode="N" horiz-adv-x="1452" d="M0 31v104q0 16 8 26.5t25 10.5h674q31 0 30 -33v-104q0 -14 -9 -24.5t-23 -10.5h-674q-31 0 -31 31zM0 322v1120q0 33 35 33h141q20 0 33 -17l870 -1173l8 1153q0 12 9.5 21t21.5 9h90h11q23 0 30.5 -9t7.5 -23l-10 -1405q0 -31 -37 -31h-131l-909 1229v-762l358 -2 q31 0 31 -33v-104q0 -14 -8 -24.5t-25 -10.5l-495 2q-31 0 -31 27z" />
<glyph unicode="O" horiz-adv-x="1697" d="M0 756q0 156 59.5 293t162 240.5t239.5 162.5t295 59q156 0 293 -59t240.5 -162.5t162.5 -241t59 -292.5q0 -156 -59 -293t-162.5 -240.5t-241 -163t-292.5 -59.5q-158 0 -295 59.5t-239.5 163t-162 240.5t-59.5 293zM166 756q0 -121 46 -228.5t126 -187.5t187.5 -127 t230.5 -47q121 0 228.5 47t187 127t125.5 187.5t46 228.5q0 123 -46 230.5t-125.5 187t-187 126t-228.5 46.5q-123 0 -230.5 -46.5t-187.5 -126t-126 -187t-46 -230.5z" />
<glyph unicode="P" horiz-adv-x="1257" d="M0 31v647q0 35 33 35l592 -2q55 4 104 29.5t87 65.5t59.5 91t21.5 107q0 57 -22.5 110t-60.5 94t-90 65.5t-110 24.5h-483q-16 0 -24.5 9.5t-8.5 21.5v103q0 35 33 34h496q100 0 180 -35.5t137 -97t88 -144.5t31 -177q0 -88 -32 -172t-89 -149.5t-140 -105.5t-184 -40 h-448v-514q0 -31 -33 -31h-104q-33 0 -33 31z" />
<glyph unicode="Q" d="M0 748q0 152 58.5 290t161 243t240.5 167.5t296 62.5q168 0 306 -65.5t238.5 -173t155.5 -247.5t55 -288q0 -117 -37.5 -233.5t-121.5 -222.5l153 -152q10 -10 11 -20q0 -16 -13 -29l-73 -74q-12 -12 -27 -12q-12 0 -21 12l-153 154q-104 -84 -222 -123t-239 -39 q-143 0 -280.5 52t-246 150.5t-175 236.5t-66.5 311zM170 754q0 -127 49 -234.5t131 -186.5t188.5 -124t223.5 -45q92 0 180 27.5t166 87.5l-78 81q-10 8 -10 21q0 14 10 25l74 73q10 10 24 10t23 -8l82 -80q57 78 85 167t28 182q0 115 -44.5 222t-122 189t-185 131 t-234.5 49q-121 0 -228.5 -47t-187.5 -127t-127 -187.5t-47 -225.5z" />
<glyph unicode="R" horiz-adv-x="1263" d="M0 31v647q0 35 33 35h596q55 4 103 29.5t85 65.5t58.5 91t21.5 107q0 55 -22.5 108t-60.5 94t-90 65.5t-110 24.5h-493q-33 0 -33 35v103q0 31 33 30h495q92 0 174 -36.5t143.5 -99t98.5 -146.5t37 -176q0 -78 -26.5 -151t-72.5 -132t-109.5 -104.5t-139.5 -65.5 l319 -532q6 -12 7 -17q0 -6 -19 -6h-154q-16 0 -26 9t-19 22l-309 514h-350v-514q0 -31 -31 -31h-106q-33 0 -33 31z" />
<glyph unicode="S" horiz-adv-x="727" d="M0 29v90q0 29 33 33q55 6 104 36.5t86 74.5t59.5 98.5t22.5 107.5q0 61 -27.5 112.5t-66.5 96.5t-79 90t-64 94q-45 90 -45 187q0 88 33.5 169.5t93 145t140.5 104.5t175 45q16 0 24.5 -10t8.5 -26v-95q0 -27 -33 -30q-59 -8 -107.5 -38t-87.5 -73q-4 -4 -17 -24.5 t-27.5 -50t-26 -62.5t-11.5 -64q0 -84 56 -157q37 -49 76.5 -95.5t71.5 -95.5t52.5 -106.5t20.5 -130.5q0 -90 -33 -171t-90 -144.5t-137 -102.5t-172 -45q-16 0 -24.5 10t-8.5 27z" />
<glyph unicode="T" horiz-adv-x="1026" d="M195 33v1403q0 31 32 30h568q31 0 36 -30v-101q0 -39 -36 -39h-430v-1263q0 -12 -9.5 -22.5t-25.5 -10.5h-103q-33 0 -32 33z" />
<glyph unicode="U" horiz-adv-x="1398" d="M0 602v858q0 12 8 21.5t21 9.5h110q12 0 22.5 -9t10.5 -22v-831q0 -98 32 -182.5t88 -147.5t137 -99t179 -36q100 0 180 37t134.5 100.5t83 148.5t28.5 179v831q0 14 10.5 22.5t24.5 8.5h96q14 0 26.5 -7t12.5 -24v-858q0 -127 -47 -236.5t-128 -191.5t-191.5 -128 t-237.5 -46q-123 0 -231.5 48t-190.5 130t-130 191.5t-48 232.5z" />
<glyph unicode="V" horiz-adv-x="1511" d="M4 1421q-8 16 0 30.5t31 14.5h104q14 0 23.5 -6t17.5 -20.5t17.5 -40t25.5 -62.5l434 -1073l437 1073q14 37 24 62.5t17.5 40t16.5 20.5t26 6h104q35 0 35 -26q0 -6 -4 -19l-582 -1396q-8 -18 -16 -21.5t-25 -3.5h-65q-16 0 -24.5 4t-14.5 21z" />
<glyph unicode="W" horiz-adv-x="2050" d="M0 1440q0 27 35 26h104q29 0 41.5 -27.5t42.5 -103.5l436 -1073q43 113 88.5 224.5t92.5 224.5l-297 710q-4 12 -4 19q0 27 34 26h105q14 0 24.5 -6t17.5 -21.5t16 -40t26 -63.5l436 -1071l436 1071q29 78 41.5 104.5t42.5 26.5h105q33 0 32 -26q0 -6 -4 -19l-581 -1396 q-6 -16 -14.5 -20.5t-24.5 -4.5h-66q-16 0 -24 4t-17 21l-196 475l-197 -475q-8 -18 -16 -21.5t-25 -3.5h-65q-29 0 -39 23l-582 1398q-4 6 -4 19z" />
<glyph unicode="X" horiz-adv-x="1382" d="M0 10q0 2 2 6t16.5 24.5t44 65t84 125t138.5 203.5t207 301q-123 178 -207 301t-138.5 204t-84 125t-44 64.5t-16.5 24.5t-2 6q0 8 14 8h150q29 0 49 -32l381 -562l381 562q25 33 51 32h148q14 0 14 -8q0 -2 -2 -6t-16.5 -24.5t-44 -65.5t-84 -125t-138.5 -204t-205 -302 q121 -178 205 -301t138.5 -202.5t84 -124t44 -65t16.5 -25.5l2 -5q0 -8 -14 -8h-148q-27 0 -51 33l-381 561l-381 -561q-25 -33 -49 -33h-150q-14 0 -14 8z" />
<glyph unicode="Y" horiz-adv-x="868" d="M0 35v620l379 639h-342q-14 0 -22.5 11.5t-8.5 25.5v105q0 31 31 30h625q12 0 12 -8t-8 -20l-496 -793v-610q0 -35 -29 -35h-106q-35 0 -35 35z" />
<glyph unicode="Z" horiz-adv-x="1400" d="M0 35v108v11q0 8 4 12l40 49t105.5 129t148.5 181.5t169 207.5q203 248 461 563h-875q-35 0 -35 37v103q0 14 6.5 22t28.5 8h1065q16 0 26.5 -7t10.5 -25v-111l-919 -1153h935q35 0 35 -35v-100q0 -14 -9 -24.5t-26 -10.5h-1136q-14 0 -24.5 10t-10.5 25zM678 313l2 105 q0 16 9 26.5t22 10.5h465q31 0 30 -33v-105q0 -12 -8 -23t-24 -11h-463q-16 0 -24.5 9t-8.5 21z" />
<glyph unicode="a" horiz-adv-x="1507" d="M0 31q0 12 4 18l610 1393q12 27 43 26h7q20 0 26.5 -5t14.5 -21q168 -389 301 -697q55 -131 109 -255.5t97 -223.5q51 -115 95 -217q4 -10 5 -15t1 -9q0 -25 -35 -25h-1239q-39 0 -39 31zM244 174h829l-414 975z" />
<glyph unicode="b" horiz-adv-x="1294" d="M0 31v776q0 33 33 33h588q47 0 88 18.5t71.5 49t49 71.5t18.5 88q0 98 -62.5 164.5t-162.5 66.5h-486q-33 0 -33 35v103q0 31 33 30h496q76 0 146.5 -29.5t123.5 -80.5t86 -122t33 -155q0 -86 -35 -163.5t-100 -137.5q98 -59 155.5 -155.5t57.5 -206.5q0 -84 -33 -160 t-89 -133t-131 -90t-157 -33h-655q-35 0 -35 31zM168 168h520q49 0 92 21.5t75 56.5t50.5 80t20.5 92q0 49 -17.5 95t-49.5 82t-76 56.5t-95 20.5h-520v-504z" />
<glyph unicode="c" horiz-adv-x="1417" d="M10 885q33 188 153 338.5t298 226.5q92 38 188 52q52 7 104 8q45 0 89 -6q96 -12 187 -46.5t171 -91.5q16 -12 20.5 -21.5t-3.5 -23.5l-52 -84q-16 -24 -33 -24q-12 0 -24 12q-72 55 -156 80.5t-174 31.5q-90 0 -175 -24.5t-158.5 -70.5t-132 -112.5t-95.5 -148.5 q-39 -86 -46 -180q-2 -24 -2 -48q-1 -69 15 -135q20 -90 68.5 -169.5t122.5 -141.5q74 -61 161 -94t182 -35h13q89 0 181 26q100 28 196 89q16 10 26.5 10t22.5 -20q16 -27 29 -47q10 -18 18 -33t10 -17q8 -14 0 -24t-20 -21q-130 -97 -288 -127q-75 -14 -149 -14 q-83 0 -167 18q-154 35 -282 127.5t-206 227.5q-12 20 -9 16t9.5 -15.5t9.5 -16.5t-10 16q-68 117 -91 248q-12 67 -12 134q0 65 11 130z" />
<glyph unicode="d" horiz-adv-x="1437" d="M0 29v1403q0 35 33 34h471q152 0 287 -56t235 -155.5t158.5 -233.5t58.5 -290q0 -158 -61.5 -292t-164 -231t-235.5 -152.5t-278 -55.5h-471q-33 0 -33 29zM168 168h330q123 0 228 46t182 124t121 183.5t44 226.5q0 123 -46 224t-124 174t-181.5 112.5t-217.5 39.5h-336 v-1130z" />
<glyph unicode="e" horiz-adv-x="1226" d="M0 33v1405q0 29 33 28h968q31 0 31 -30v-103q0 -37 -33 -37h-827v-245h657q14 0 22.5 -10.5t8.5 -24.5v-103q0 -14 -8 -24t-23 -10h-657v-254h657q31 0 31 -33v-105q0 -12 -8 -23t-23 -11h-657v-283h821q16 0 26.5 -9t10.5 -26v-100q0 -35 -35 -35h-962q-33 0 -33 33z " />
<glyph unicode="f" horiz-adv-x="1210" d="M0 29v1405q0 33 33 32h948q35 0 35 -34v-99q0 -16 -9.5 -26.5t-25.5 -10.5h-809v-477h573q31 0 31 -33v-102q0 -14 -8 -25.5t-23 -11.5h-573v-618q0 -29 -35 -29h-104q-33 0 -33 29z" />
<glyph unicode="g" horiz-adv-x="1433" d="M0 756q0 154 59.5 291t162 240.5t239.5 163.5t295 60q59 0 122.5 -10t125 -31.5t118 -53.5t101.5 -77q14 -14 14 -36q0 -16 -9 -34t-22.5 -31t-28 -21.5t-26.5 -8.5q-8 0 -23.5 8.5t-72.5 43.5q-66 39 -138.5 57t-146.5 18q-121 0 -229.5 -46t-191.5 -125t-132 -185.5 t-49 -224.5q0 -119 45 -225.5t124 -186.5t183.5 -127t222.5 -47q86 0 168 28.5t160 67.5v359q0 23 12.5 36t34.5 13h72q23 0 36 -13.5t13 -35.5v-428q0 -18 -8 -27.5t-25 -22.5q-102 -72 -215.5 -108.5t-238.5 -36.5q-102 0 -199.5 27.5t-183.5 79t-157 123t-120 161.5 q0 -2 9.5 -18.5t9.5 -14.5q-111 182 -111 398z" />
<glyph unicode="h" horiz-adv-x="1402" d="M0 31v1405q0 16 9 23t22 7h106q12 0 22.5 -8t10.5 -22v-387h868v387q1 14 9 22t24 8h103q14 0 24 -8t10 -22v-1405q0 -31 -34 -31h-103q-33 0 -33 31v422h-868v-422q0 -31 -35 -31h-104q-31 0 -31 31zM170 625h868v254h-868v-254z" />
<glyph unicode="i" horiz-adv-x="503" d="M0 31v1405q0 14 9 22t22 8h106q35 0 35 -32v-1403q0 -31 -35 -31h-106q-31 0 -31 31z" />
<glyph unicode="j" horiz-adv-x="827" d="M0 135q0 6 5 12.5t11 12.5l72 67q10 10 18 11q6 0 17 -7q23 -16 40 -28.5t33.5 -21.5t37 -14t49.5 -5q31 0 63.5 12t58 35.5t42 57.5t16.5 77v1112q0 25 29 31h108q16 0 24.5 -10.5t8.5 -22.5v-1110q0 -80 -30 -144.5t-79 -109.5t-112.5 -69.5t-128.5 -24.5 q-82 0 -155 29t-120 92q-6 10 -7 13t-1 5z" />
<glyph unicode="k" horiz-adv-x="1165" d="M0 49v1370q0 23 12.5 36t34.5 13h72q23 0 36 -14t13 -35v-581l418 444q10 10 22.5 21.5t28.5 11.5h139q43 0 43 -23q0 -8 -8 -16l-643 -682v-113l543 574q10 10 22 21t29 11h139q18 0 36.5 -10t0.5 -28l-467 -492l490 -518q10 -14 10 -19q0 -10 -14.5 -15t-32.5 -5h-140 q-16 0 -27.5 11.5l-21.5 21.5l-379 401l-188 -196v-189q0 -49 -49 -49h-72q-47 0 -47 49z" />
<glyph unicode="l" horiz-adv-x="1112" d="M0 31v1405q0 31 33 30h104q31 0 31 -30v-1266h719q16 0 23.5 -11.5t7.5 -23.5v-104q-4 -29 -31 -31h-856q-31 0 -31 31z" />
<glyph unicode="m" horiz-adv-x="2050" d="M0 27q0 12 4 18l582 1399q10 23 39 22h65q16 0 24.5 -3t16.5 -21l197 -475l196 475q8 16 16.5 20t24.5 4h66q16 0 24.5 -4t14.5 -20l581 -1397q4 -12 4 -18q0 -27 -32 -27h-105q-31 0 -43 26.5t-41 104.5l-436 1071l-436 -1071q-16 -39 -25.5 -63.5t-16.5 -40 t-17.5 -21.5t-24.5 -6h-105q-35 0 -34 27q0 6 4 18l297 711q-47 113 -92.5 224.5t-88.5 223.5l-436 -1073q-16 -39 -25.5 -63.5t-17.5 -40t-17 -21.5t-24 -6h-104q-35 0 -35 27z" />
<glyph unicode="n" horiz-adv-x="1452" d="M0 31v104q0 16 8 26.5t25 10.5h674q31 0 30 -33v-104q0 -14 -9 -24.5t-23 -10.5h-674q-31 0 -31 31zM0 322v1120q0 33 35 33h141q20 0 33 -17l870 -1173l8 1153q0 12 9.5 21t21.5 9h90h11q23 0 30.5 -9t7.5 -23l-10 -1405q0 -31 -37 -31h-131l-909 1229v-762l358 -2 q31 0 31 -33v-104q0 -14 -8 -24.5t-25 -10.5l-495 2q-31 0 -31 27z" />
<glyph unicode="o" horiz-adv-x="1697" d="M0 756q0 156 59.5 293t162 240.5t239.5 162.5t295 59q156 0 293 -59t240.5 -162.5t162.5 -241t59 -292.5q0 -156 -59 -293t-162.5 -240.5t-241 -163t-292.5 -59.5q-158 0 -295 59.5t-239.5 163t-162 240.5t-59.5 293zM166 756q0 -121 46 -228.5t126 -187.5t187.5 -127 t230.5 -47q121 0 228.5 47t187 127t125.5 187.5t46 228.5q0 123 -46 230.5t-125.5 187t-187 126t-228.5 46.5q-123 0 -230.5 -46.5t-187.5 -126t-126 -187t-46 -230.5z" />
<glyph unicode="p" horiz-adv-x="1257" d="M0 31v647q0 35 33 35l592 -2q55 4 104 29.5t87 65.5t59.5 91t21.5 107q0 57 -22.5 110t-60.5 94t-90 65.5t-110 24.5h-483q-16 0 -24.5 9.5t-8.5 21.5v103q0 35 33 34h496q100 0 180 -35.5t137 -97t88 -144.5t31 -177q0 -88 -32 -172t-89 -149.5t-140 -105.5t-184 -40 h-448v-514q0 -31 -33 -31h-104q-33 0 -33 31z" />
<glyph unicode="q" d="M0 748q0 152 58.5 290t161 243t240.5 167.5t296 62.5q168 0 306 -65.5t238.5 -173t155.5 -247.5t55 -288q0 -117 -37.5 -233.5t-121.5 -222.5l153 -152q10 -10 11 -20q0 -16 -13 -29l-73 -74q-12 -12 -27 -12q-12 0 -21 12l-153 154q-104 -84 -222 -123t-239 -39 q-143 0 -280.5 52t-246 150.5t-175 236.5t-66.5 311zM170 754q0 -127 49 -234.5t131 -186.5t188.5 -124t223.5 -45q92 0 180 27.5t166 87.5l-78 81q-10 8 -10 21q0 14 10 25l74 73q10 10 24 10t23 -8l82 -80q57 78 85 167t28 182q0 115 -44.5 222t-122 189t-185 131 t-234.5 49q-121 0 -228.5 -47t-187.5 -127t-127 -187.5t-47 -225.5z" />
<glyph unicode="r" horiz-adv-x="1263" d="M0 31v647q0 35 33 35h596q55 4 103 29.5t85 65.5t58.5 91t21.5 107q0 55 -22.5 108t-60.5 94t-90 65.5t-110 24.5h-493q-33 0 -33 35v103q0 31 33 30h495q92 0 174 -36.5t143.5 -99t98.5 -146.5t37 -176q0 -78 -26.5 -151t-72.5 -132t-109.5 -104.5t-139.5 -65.5 l319 -532q6 -12 7 -17q0 -6 -19 -6h-154q-16 0 -26 9t-19 22l-309 514h-350v-514q0 -31 -31 -31h-106q-33 0 -33 31z" />
<glyph unicode="s" horiz-adv-x="727" d="M0 29v90q0 29 33 33q55 6 104 36.5t86 74.5t59.5 98.5t22.5 107.5q0 61 -27.5 112.5t-66.5 96.5t-79 90t-64 94q-45 90 -45 187q0 88 33.5 169.5t93 145t140.5 104.5t175 45q16 0 24.5 -10t8.5 -26v-95q0 -27 -33 -30q-59 -8 -107.5 -38t-87.5 -73q-4 -4 -17 -24.5 t-27.5 -50t-26 -62.5t-11.5 -64q0 -84 56 -157q37 -49 76.5 -95.5t71.5 -95.5t52.5 -106.5t20.5 -130.5q0 -90 -33 -171t-90 -144.5t-137 -102.5t-172 -45q-16 0 -24.5 10t-8.5 27z" />
<glyph unicode="t" horiz-adv-x="1026" d="M195 33v1403q0 31 32 30h568q31 0 36 -30v-101q0 -39 -36 -39h-430v-1263q0 -12 -9.5 -22.5t-25.5 -10.5h-103q-33 0 -32 33z" />
<glyph unicode="u" horiz-adv-x="1398" d="M0 602v858q0 12 8 21.5t21 9.5h110q12 0 22.5 -9t10.5 -22v-831q0 -98 32 -182.5t88 -147.5t137 -99t179 -36q100 0 180 37t134.5 100.5t83 148.5t28.5 179v831q0 14 10.5 22.5t24.5 8.5h96q14 0 26.5 -7t12.5 -24v-858q0 -127 -47 -236.5t-128 -191.5t-191.5 -128 t-237.5 -46q-123 0 -231.5 48t-190.5 130t-130 191.5t-48 232.5z" />
<glyph unicode="v" horiz-adv-x="1511" d="M4 1421q-8 16 0 30.5t31 14.5h104q14 0 23.5 -6t17.5 -20.5t17.5 -40t25.5 -62.5l434 -1073l437 1073q14 37 24 62.5t17.5 40t16.5 20.5t26 6h104q35 0 35 -26q0 -6 -4 -19l-582 -1396q-8 -18 -16 -21.5t-25 -3.5h-65q-16 0 -24.5 4t-14.5 21z" />
<glyph unicode="w" horiz-adv-x="2050" d="M3 1453.5q9 12.5 32 12.5h104q14 0 23.5 -6t17.5 -20.5t17.5 -40t25.5 -62.5l434 -1073l179 438l-267 644q-10 20 -0.5 32.5t29.5 12.5h104q31 0 43.5 -27t40.5 -104l140 -338l129 333q14 39 24.5 63.5t17.5 40t16 21.5t26 6h104q20 0 29.5 -12t-0.5 -33l-256 -630 q47 -113 92 -223.5t88 -225.5l438 1075q29 76 41.5 102.5t42.5 26.5h105q20 0 29.5 -12t-1.5 -33l-581 -1396q-6 -16 -14.5 -20.5t-24.5 -4.5h-66q-16 0 -24 4t-17 21l-194 477l-199 -477q-8 -16 -15 -20.5t-24 -4.5h-2h-63h-2q-16 0 -24.5 4t-14.5 21l-582 1396 q-10 20 -1 32.5z" />
<glyph unicode="x" horiz-adv-x="1382" d="M0 10q0 2 2 6t16.5 24.5t44 65t84 125t138.5 203.5t207 301q-123 178 -207 301t-138.5 204t-84 125t-44 64.5t-16.5 24.5t-2 6q0 8 14 8h150q29 0 49 -32l381 -562l381 562q25 33 51 32h148q14 0 14 -8q0 -2 -2 -6t-16.5 -24.5t-44 -65.5t-84 -125t-138.5 -204t-205 -302 q121 -178 205 -301t138.5 -202.5t84 -124t44 -65t16.5 -25.5l2 -5q0 -8 -14 -8h-148q-27 0 -51 33l-381 561l-381 -561q-25 -33 -49 -33h-150q-14 0 -14 8z" />
<glyph unicode="y" horiz-adv-x="868" d="M0 1458q0 8 12 8h625q31 0 31 -30v-105q0 -14 -8.5 -25.5t-22.5 -11.5h-342l379 -639v-620q0 -35 -35 -35h-107q-29 0 -28 35v610l-496 793q-8 12 -8 20z" />
<glyph unicode="z" horiz-adv-x="1400" d="M0 35v108v11q0 8 4 12l40 49t105.5 129t148.5 181.5t169 207.5q203 248 461 563h-875q-35 0 -35 37v103q0 14 6.5 22t28.5 8h1065q16 0 26.5 -7t10.5 -25v-111l-919 -1153h935q35 0 35 -35v-100q0 -14 -9 -24.5t-26 -10.5h-1136q-14 0 -24.5 10t-10.5 25zM678 313l2 105 q0 16 9 26.5t22 10.5h465q31 0 30 -33v-105q0 -12 -8 -23t-24 -11h-463q-16 0 -24.5 9t-8.5 21z" />
<glyph unicode="&#x2000;" horiz-adv-x="756" />
<glyph unicode="&#x2001;" horiz-adv-x="1513" />
<glyph unicode="&#x2002;" horiz-adv-x="756" />
<glyph unicode="&#x2003;" horiz-adv-x="1513" />
<glyph unicode="&#x2004;" horiz-adv-x="504" />
<glyph unicode="&#x2005;" horiz-adv-x="378" />
<glyph unicode="&#x2006;" horiz-adv-x="252" />
<glyph unicode="&#x2007;" horiz-adv-x="252" />
<glyph unicode="&#x2008;" horiz-adv-x="189" />
<glyph unicode="&#x2009;" horiz-adv-x="302" />
<glyph unicode="&#x200a;" horiz-adv-x="84" />
<glyph unicode="&#x202f;" horiz-adv-x="302" />
<glyph unicode="&#x205f;" horiz-adv-x="378" />
<glyph unicode="&#x25fc;" horiz-adv-x="1464" d="M0 0v1464h1464v-1464h-1464z" />
</font>
</defs>
</svg>
